{
	"asset":{
		"version":"2.0",
		"generator":"Created using the official Cinema 4D glTF Exporter 1.000x284978"
	},
	"scenes":[{
		"nodes":[0]
	}],
	"nodes":[{
		"name":"lampe",
		"translation":[-2.355,
		-1.491,
		-0.799],
		"rotation":[0,
		-0.933,
		0,
		0.36],
		"scale":[1,
		1,
		-1],
		"children":[1,
		5,
		6]
	},
	{
		"name":"cou",
		"translation":[0.248,
		1.477,
		0.041],
		"rotation":[-0.379,
		0,
		0,
		-0.926],
		"scale":[1,
		1,
		1],
		"children":[2,
		3,
		4]
	},
	{
		"name":"Sphere",
		"translation":[0,
		1.61,
		0.208],
		"rotation":[-0.707,
		0,
		0,
		-0.707],
		"scale":[1,
		1,
		1],
		"mesh":0
	},
	{
		"name":"Cylinder.3",
		"translation":[0,
		1.61,
		-0.057],
		"rotation":[-0.707,
		0,
		0,
		-0.707],
		"scale":[1,
		1,
		1],
		"mesh":1
	},
	{
		"name":"Cylinder.2",
		"translation":[0,
		-0.417,
		-0.04],
		"rotation":[0,
		0,
		1,
		0],
		"scale":[1,
		1,
		1],
		"mesh":2
	},
	{
		"name":"Cylinder.1",
		"translation":[0.226,
		1.476,
		0],
		"rotation":[0,
		0,
		0.707,
		0.707],
		"scale":[1,
		1,
		1],
		"mesh":3
	},
	{
		"name":"Cylinder",
		"translation":[0,
		0.079,
		0],
		"rotation":[0,
		0,
		0,
		-1],
		"scale":[1,
		1,
		1],
		"mesh":4
	}],
	"buffers":[{
		"uri":"data:application/octet-stream;base64,",
		"byteLength":6176
	},
	{
		"uri":"data:application/octet-stream;base64,",
		"byteLength":7616
	},
	{
		"uri":"data:application/octet-stream;base64,",
		"byteLength":6400
	},
	{
		"uri":"data:application/octet-stream;base64,",
		"byteLength":2560
	},
	{
		"uri":"data:application/octet-stream;base64,",
		"byteLength":6208
	}],
	"meshes":[{
		"primitives":[{
			"attributes":{
				"POSITION":1,
				"NORMAL":2,
				"TEXCOORD_0":3
			},
			"indices":0,
			"material":0
		}]
	},
	{
		"primitives":[{
			"attributes":{
				"POSITION":5,
				"NORMAL":6,
				"TEXCOORD_0":7
			},
			"indices":4,
			"material":1
		}]
	},
	{
		"primitives":[{
			"attributes":{
				"POSITION":9,
				"NORMAL":10,
				"TEXCOORD_0":11
			},
			"indices":8,
			"material":1
		}]
	},
	{
		"primitives":[{
			"attributes":{
				"POSITION":13,
				"NORMAL":14,
				"TEXCOORD_0":15
			},
			"indices":12,
			"material":1
		}]
	},
	{
		"primitives":[{
			"attributes":{
				"POSITION":17,
				"NORMAL":18,
				"TEXCOORD_0":19
			},
			"indices":16,
			"material":2
		}]
	}],
	"accessors":[{
		"bufferView":0,
		"type":"SCALAR",
		"componentType":5123,
		"count":672,
		"byteOffset":0,
		"min":[0],
		"max":[150]
	},
	{
		"bufferView":1,
		"type":"VEC3",
		"componentType":5126,
		"count":151,
		"byteOffset":0,
		"min":[-0.144,
		-0.144,
		-0.144],
		"max":[0.144,
		0.144,
		0.144]
	},
	{
		"bufferView":1,
		"type":"VEC3",
		"componentType":5126,
		"count":151,
		"byteOffset":12,
		"min":[-1,
		-1,
		-1],
		"max":[1,
		1,
		1]
	},
	{
		"bufferView":1,
		"type":"VEC2",
		"componentType":5126,
		"count":151,
		"byteOffset":24,
		"min":[0,
		0],
		"max":[1,
		1]
	},
	{
		"bufferView":2,
		"type":"SCALAR",
		"componentType":5123,
		"count":672,
		"byteOffset":0,
		"min":[0],
		"max":[195]
	},
	{
		"bufferView":3,
		"type":"VEC3",
		"componentType":5126,
		"count":196,
		"byteOffset":0,
		"min":[-0.321,
		-0.079,
		-0.321],
		"max":[0.321,
		0.467,
		0.321]
	},
	{
		"bufferView":3,
		"type":"VEC3",
		"componentType":5126,
		"count":196,
		"byteOffset":12,
		"min":[-0.998,
		-1,
		-0.998],
		"max":[0.998,
		1,
		0.998]
	},
	{
		"bufferView":3,
		"type":"VEC2",
		"componentType":5126,
		"count":196,
		"byteOffset":24,
		"min":[0,
		0],
		"max":[1,
		1]
	},
	{
		"bufferView":4,
		"type":"SCALAR",
		"componentType":5123,
		"count":576,
		"byteOffset":0,
		"min":[0],
		"max":[163]
	},
	{
		"bufferView":5,
		"type":"VEC3",
		"componentType":5126,
		"count":164,
		"byteOffset":0,
		"min":[-0.054,
		-1.914,
		-0.054],
		"max":[0.054,
		0.126,
		0.054]
	},
	{
		"bufferView":5,
		"type":"VEC3",
		"componentType":5126,
		"count":164,
		"byteOffset":12,
		"min":[-0.998,
		-1,
		-0.998],
		"max":[0.998,
		1,
		0.998]
	},
	{
		"bufferView":5,
		"type":"VEC2",
		"componentType":5126,
		"count":164,
		"byteOffset":24,
		"min":[0,
		0],
		"max":[1,
		1]
	},
	{
		"bufferView":6,
		"type":"SCALAR",
		"componentType":5123,
		"count":192,
		"byteOffset":0,
		"min":[0],
		"max":[67]
	},
	{
		"bufferView":7,
		"type":"VEC3",
		"componentType":5126,
		"count":68,
		"byteOffset":0,
		"min":[-0.054,
		-0.228,
		-0.054],
		"max":[0.054,
		0.228,
		0.054]
	},
	{
		"bufferView":7,
		"type":"VEC3",
		"componentType":5126,
		"count":68,
		"byteOffset":12,
		"min":[-0.998,
		-1,
		-0.998],
		"max":[0.998,
		1,
		0.998]
	},
	{
		"bufferView":7,
		"type":"VEC2",
		"componentType":5126,
		"count":68,
		"byteOffset":24,
		"min":[0,
		0],
		"max":[1,
		1]
	},
	{
		"bufferView":8,
		"type":"SCALAR",
		"componentType":5123,
		"count":480,
		"byteOffset":0,
		"min":[0],
		"max":[163]
	},
	{
		"bufferView":9,
		"type":"VEC3",
		"componentType":5126,
		"count":164,
		"byteOffset":0,
		"min":[-0.5,
		-0.079,
		-0.5],
		"max":[0.5,
		1.6,
		0.5]
	},
	{
		"bufferView":9,
		"type":"VEC3",
		"componentType":5126,
		"count":164,
		"byteOffset":12,
		"min":[-0.999,
		-1,
		-0.999],
		"max":[0.999,
		1,
		0.999]
	},
	{
		"bufferView":9,
		"type":"VEC2",
		"componentType":5126,
		"count":164,
		"byteOffset":24,
		"min":[0,
		0],
		"max":[1,
		1]
	}],
	"bufferViews":[{
		"buffer":0,
		"byteOffset":0,
		"byteLength":1344,
		"target":34963
	},
	{
		"buffer":0,
		"byteOffset":1344,
		"byteLength":4832,
		"target":34962,
		"byteStride":32
	},
	{
		"buffer":1,
		"byteOffset":0,
		"byteLength":1344,
		"target":34963
	},
	{
		"buffer":1,
		"byteOffset":1344,
		"byteLength":6272,
		"target":34962,
		"byteStride":32
	},
	{
		"buffer":2,
		"byteOffset":0,
		"byteLength":1152,
		"target":34963
	},
	{
		"buffer":2,
		"byteOffset":1152,
		"byteLength":5248,
		"target":34962,
		"byteStride":32
	},
	{
		"buffer":3,
		"byteOffset":0,
		"byteLength":384,
		"target":34963
	},
	{
		"buffer":3,
		"byteOffset":384,
		"byteLength":2176,
		"target":34962,
		"byteStride":32
	},
	{
		"buffer":4,
		"byteOffset":0,
		"byteLength":960,
		"target":34963
	},
	{
		"buffer":4,
		"byteOffset":960,
		"byteLength":5248,
		"target":34962,
		"byteStride":32
	}],
	"materials":[{
		"pbrMetallicRoughness":{
			"baseColorFactor":[0.97,
			0.97,
			0.97,
			1],
			"metallicFactor":0,
			"roughnessFactor":0.5
		},
		"emissiveFactor":[0,
		0,
		0],
		"alphaMode":"OPAQUE",
		"doubleSided":false,
		"name":"Mat.3"
	},
	{
		"pbrMetallicRoughness":{
			"baseColorFactor":[0,
			0.72,
			0.8,
			1],
			"metallicFactor":0,
			"roughnessFactor":0.5
		},
		"emissiveFactor":[0,
		0,
		0],
		"alphaMode":"OPAQUE",
		"doubleSided":false,
		"name":"Mat.2"
	},
	{
		"pbrMetallicRoughness":{
			"baseColorFactor":[0.787,
			0.8,
			0,
			1],
			"metallicFactor":0,
			"roughnessFactor":0.5
		},
		"emissiveFactor":[0,
		0,
		0],
		"alphaMode":"OPAQUE",
		"doubleSided":false,
		"name":"Mat.1"
	}]
}