{
	"asset":{
		"version":"2.0",
		"generator":"Created using the official Cinema 4D glTF Exporter 1.000x284978"
	},
	"scenes":[{
		"nodes":[0,
		5]
	}],
	"nodes":[{
		"name":"searchbar",
		"translation":[-0.621,
		0.629,
		0.076],
		"rotation":[0,
		-1,
		0,
		0],
		"scale":[1,
		1,
		-1],
		"children":[1,
		2,
		3,
		4]
	},
	{
		"name":"Cube.5 0.3",
		"translation":[-0.063,
		0.001,
		0.005],
		"rotation":[0,
		0,
		0,
		-1],
		"scale":[1,
		1,
		1],
		"mesh":0
	},
	{
		"name":"Cube.5 0.2",
		"translation":[0.149,
		0.001,
		0.005],
		"rotation":[0,
		0,
		0,
		-1],
		"scale":[1,
		1,
		1],
		"mesh":1
	},
	{
		"name":"Cube.5 0.1",
		"translation":[0.534,
		0.001,
		0.005],
		"rotation":[0,
		0,
		0,
		-1],
		"scale":[1,
		1,
		1],
		"mesh":2
	},
	{
		"name":"Cube.1",
		"translation":[-0.621,
		-0.002,
		-0.015],
		"rotation":[0,
		0,
		0,
		-1],
		"scale":[1,
		1,
		1],
		"mesh":3
	},
	{
		"name":"screen",
		"translation":[-0.462,
		0.653,
		0.044],
		"rotation":[0,
		-1,
		0,
		0],
		"scale":[1,
		1,
		-1],
		"children":[6,
		7,
		8,
		9,
		10]
	},
	{
		"name":"Cylinder.3",
		"translation":[0.595,
		0.163,
		0.011],
		"rotation":[-0.707,
		0,
		0,
		-0.707],
		"scale":[1,
		1,
		1],
		"mesh":4
	},
	{
		"name":"Cylinder.2",
		"translation":[0.781,
		0.163,
		0.011],
		"rotation":[-0.707,
		0,
		0,
		-0.707],
		"scale":[1,
		1,
		1],
		"mesh":5
	},
	{
		"name":"Cylinder.1",
		"translation":[0.966,
		0.163,
		0.011],
		"rotation":[-0.707,
		0,
		0,
		-0.707],
		"scale":[1,
		1,
		1],
		"mesh":6
	},
	{
		"name":"Cylinder",
		"translation":[-1.88,
		0.163,
		0.011],
		"rotation":[-0.707,
		0,
		0,
		-0.707],
		"scale":[1,
		1,
		1],
		"mesh":7
	},
	{
		"name":"Cube",
		"translation":[-0.462,
		-0.653,
		-0.044],
		"rotation":[0,
		0,
		0,
		-1],
		"scale":[1,
		1,
		1],
		"mesh":8
	}],
	"meshes":[{
		"primitives":[{
			"attributes":{
				"POSITION":1,
				"NORMAL":2,
				"TEXCOORD_0":3
			},
			"indices":0,
			"material":0
		}]
	},
	{
		"primitives":[{
			"attributes":{
				"POSITION":5,
				"NORMAL":6,
				"TEXCOORD_0":7
			},
			"indices":4,
			"material":0
		}]
	},
	{
		"primitives":[{
			"attributes":{
				"POSITION":9,
				"NORMAL":10,
				"TEXCOORD_0":11
			},
			"indices":8,
			"material":0
		}]
	},
	{
		"primitives":[{
			"attributes":{
				"POSITION":13,
				"NORMAL":14,
				"TEXCOORD_0":15
			},
			"indices":12,
			"material":1
		}]
	},
	{
		"primitives":[{
			"attributes":{
				"POSITION":17,
				"NORMAL":18,
				"TEXCOORD_0":19
			},
			"indices":16,
			"material":0
		}]
	},
	{
		"primitives":[{
			"attributes":{
				"POSITION":21,
				"NORMAL":22,
				"TEXCOORD_0":23
			},
			"indices":20,
			"material":2
		}]
	},
	{
		"primitives":[{
			"attributes":{
				"POSITION":25,
				"NORMAL":26,
				"TEXCOORD_0":27
			},
			"indices":24,
			"material":3
		}]
	},
	{
		"primitives":[{
			"attributes":{
				"POSITION":29,
				"NORMAL":30,
				"TEXCOORD_0":31
			},
			"indices":28,
			"material":1
		}]
	},
	{
		"primitives":[{
			"attributes":{
				"POSITION":33,
				"NORMAL":34,
				"TEXCOORD_0":35
			},
			"indices":32,
			"material":4
		}]
	}],
	"accessors":[{
		"bufferView":0,
		"type":"SCALAR",
		"componentType":5123,
		"count":132,
		"byteOffset":0,
		"min":[0],
		"max":[69]
	},
	{
		"bufferView":1,
		"type":"VEC3",
		"componentType":5126,
		"count":70,
		"byteOffset":0,
		"min":[-0.124,
		-0.031,
		-0.01],
		"max":[0.124,
		0.031,
		0.01]
	},
	{
		"bufferView":1,
		"type":"VEC3",
		"componentType":5126,
		"count":70,
		"byteOffset":12,
		"min":[-1,
		-1,
		-1],
		"max":[1,
		1,
		1]
	},
	{
		"bufferView":1,
		"type":"VEC2",
		"componentType":5126,
		"count":70,
		"byteOffset":24,
		"min":[-0.345,
		-0.015],
		"max":[1.345,
		1.015]
	},
	{
		"bufferView":2,
		"type":"SCALAR",
		"componentType":5123,
		"count":132,
		"byteOffset":0,
		"min":[0],
		"max":[69]
	},
	{
		"bufferView":3,
		"type":"VEC3",
		"componentType":5126,
		"count":70,
		"byteOffset":0,
		"min":[-0.055,
		-0.031,
		-0.01],
		"max":[0.055,
		0.031,
		0.01]
	},
	{
		"bufferView":3,
		"type":"VEC3",
		"componentType":5126,
		"count":70,
		"byteOffset":12,
		"min":[-1,
		-1,
		-1],
		"max":[1,
		1,
		1]
	},
	{
		"bufferView":3,
		"type":"VEC2",
		"componentType":5126,
		"count":70,
		"byteOffset":24,
		"min":[-0.345,
		-0.015],
		"max":[1.345,
		1.015]
	},
	{
		"bufferView":4,
		"type":"SCALAR",
		"componentType":5123,
		"count":132,
		"byteOffset":0,
		"min":[0],
		"max":[69]
	},
	{
		"bufferView":5,
		"type":"VEC3",
		"componentType":5126,
		"count":70,
		"byteOffset":0,
		"min":[-0.298,
		-0.031,
		-0.01],
		"max":[0.298,
		0.031,
		0.01]
	},
	{
		"bufferView":5,
		"type":"VEC3",
		"componentType":5126,
		"count":70,
		"byteOffset":12,
		"min":[-1,
		-1,
		-1],
		"max":[1,
		1,
		1]
	},
	{
		"bufferView":5,
		"type":"VEC2",
		"componentType":5126,
		"count":70,
		"byteOffset":24,
		"min":[-0.345,
		-0.015],
		"max":[1.345,
		1.015]
	},
	{
		"bufferView":6,
		"type":"SCALAR",
		"componentType":5123,
		"count":132,
		"byteOffset":0,
		"min":[0],
		"max":[69]
	},
	{
		"bufferView":7,
		"type":"VEC3",
		"componentType":5126,
		"count":70,
		"byteOffset":0,
		"min":[-1.504,
		-0.065,
		-0.022],
		"max":[1.504,
		0.065,
		0.022]
	},
	{
		"bufferView":7,
		"type":"VEC3",
		"componentType":5126,
		"count":70,
		"byteOffset":12,
		"min":[-1,
		-1,
		-1],
		"max":[1,
		1,
		1]
	},
	{
		"bufferView":7,
		"type":"VEC2",
		"componentType":5126,
		"count":70,
		"byteOffset":24,
		"min":[-0.345,
		-0.015],
		"max":[1.345,
		1.015]
	},
	{
		"bufferView":8,
		"type":"SCALAR",
		"componentType":5123,
		"count":144,
		"byteOffset":0,
		"min":[0],
		"max":[51]
	},
	{
		"bufferView":9,
		"type":"VEC3",
		"componentType":5126,
		"count":52,
		"byteOffset":0,
		"min":[-0.046,
		-0.009,
		-0.046],
		"max":[0.046,
		0.009,
		0.046]
	},
	{
		"bufferView":9,
		"type":"VEC3",
		"componentType":5126,
		"count":52,
		"byteOffset":12,
		"min":[-0.996,
		-1,
		-0.996],
		"max":[0.996,
		1,
		0.996]
	},
	{
		"bufferView":9,
		"type":"VEC2",
		"componentType":5126,
		"count":52,
		"byteOffset":24,
		"min":[0,
		0],
		"max":[1,
		1]
	},
	{
		"bufferView":10,
		"type":"SCALAR",
		"componentType":5123,
		"count":144,
		"byteOffset":0,
		"min":[0],
		"max":[51]
	},
	{
		"bufferView":11,
		"type":"VEC3",
		"componentType":5126,
		"count":52,
		"byteOffset":0,
		"min":[-0.046,
		-0.009,
		-0.046],
		"max":[0.046,
		0.009,
		0.046]
	},
	{
		"bufferView":11,
		"type":"VEC3",
		"componentType":5126,
		"count":52,
		"byteOffset":12,
		"min":[-0.996,
		-1,
		-0.996],
		"max":[0.996,
		1,
		0.996]
	},
	{
		"bufferView":11,
		"type":"VEC2",
		"componentType":5126,
		"count":52,
		"byteOffset":24,
		"min":[0,
		0],
		"max":[1,
		1]
	},
	{
		"bufferView":12,
		"type":"SCALAR",
		"componentType":5123,
		"count":144,
		"byteOffset":0,
		"min":[0],
		"max":[51]
	},
	{
		"bufferView":13,
		"type":"VEC3",
		"componentType":5126,
		"count":52,
		"byteOffset":0,
		"min":[-0.046,
		-0.009,
		-0.046],
		"max":[0.046,
		0.009,
		0.046]
	},
	{
		"bufferView":13,
		"type":"VEC3",
		"componentType":5126,
		"count":52,
		"byteOffset":12,
		"min":[-0.996,
		-1,
		-0.996],
		"max":[0.996,
		1,
		0.996]
	},
	{
		"bufferView":13,
		"type":"VEC2",
		"componentType":5126,
		"count":52,
		"byteOffset":24,
		"min":[0,
		0],
		"max":[1,
		1]
	},
	{
		"bufferView":14,
		"type":"SCALAR",
		"componentType":5123,
		"count":144,
		"byteOffset":0,
		"min":[0],
		"max":[51]
	},
	{
		"bufferView":15,
		"type":"VEC3",
		"componentType":5126,
		"count":52,
		"byteOffset":0,
		"min":[-0.046,
		-0.009,
		-0.046],
		"max":[0.046,
		0.009,
		0.046]
	},
	{
		"bufferView":15,
		"type":"VEC3",
		"componentType":5126,
		"count":52,
		"byteOffset":12,
		"min":[-0.996,
		-1,
		-0.996],
		"max":[0.996,
		1,
		0.996]
	},
	{
		"bufferView":15,
		"type":"VEC2",
		"componentType":5126,
		"count":52,
		"byteOffset":24,
		"min":[0,
		0],
		"max":[1,
		1]
	},
	{
		"bufferView":16,
		"type":"SCALAR",
		"componentType":5123,
		"count":420,
		"byteOffset":0,
		"min":[0],
		"max":[227]
	},
	{
		"bufferView":17,
		"type":"VEC3",
		"componentType":5126,
		"count":228,
		"byteOffset":0,
		"min":[-1.642,
		-1,
		-0.052],
		"max":[1.642,
		1,
		0.052]
	},
	{
		"bufferView":17,
		"type":"VEC3",
		"componentType":5126,
		"count":228,
		"byteOffset":12,
		"min":[-1,
		-1,
		-1],
		"max":[1,
		0.992,
		1]
	},
	{
		"bufferView":17,
		"type":"VEC2",
		"componentType":5126,
		"count":228,
		"byteOffset":24,
		"min":[-0.148,
		-0.21],
		"max":[1.21,
		1.148]
	}],
	"bufferViews":[{
		"buffer":0,
		"byteOffset":0,
		"byteLength":264,
		"target":34963
	},
	{
		"buffer":0,
		"byteOffset":264,
		"byteLength":2240,
		"target":34962,
		"byteStride":32
	},
	{
		"buffer":1,
		"byteOffset":0,
		"byteLength":264,
		"target":34963
	},
	{
		"buffer":1,
		"byteOffset":264,
		"byteLength":2240,
		"target":34962,
		"byteStride":32
	},
	{
		"buffer":2,
		"byteOffset":0,
		"byteLength":264,
		"target":34963
	},
	{
		"buffer":2,
		"byteOffset":264,
		"byteLength":2240,
		"target":34962,
		"byteStride":32
	},
	{
		"buffer":3,
		"byteOffset":0,
		"byteLength":264,
		"target":34963
	},
	{
		"buffer":3,
		"byteOffset":264,
		"byteLength":2240,
		"target":34962,
		"byteStride":32
	},
	{
		"buffer":4,
		"byteOffset":0,
		"byteLength":288,
		"target":34963
	},
	{
		"buffer":4,
		"byteOffset":288,
		"byteLength":1664,
		"target":34962,
		"byteStride":32
	},
	{
		"buffer":5,
		"byteOffset":0,
		"byteLength":288,
		"target":34963
	},
	{
		"buffer":5,
		"byteOffset":288,
		"byteLength":1664,
		"target":34962,
		"byteStride":32
	},
	{
		"buffer":6,
		"byteOffset":0,
		"byteLength":288,
		"target":34963
	},
	{
		"buffer":6,
		"byteOffset":288,
		"byteLength":1664,
		"target":34962,
		"byteStride":32
	},
	{
		"buffer":7,
		"byteOffset":0,
		"byteLength":288,
		"target":34963
	},
	{
		"buffer":7,
		"byteOffset":288,
		"byteLength":1664,
		"target":34962,
		"byteStride":32
	},
	{
		"buffer":8,
		"byteOffset":0,
		"byteLength":840,
		"target":34963
	},
	{
		"buffer":8,
		"byteOffset":840,
		"byteLength":7296,
		"target":34962,
		"byteStride":32
	}],
	"buffers":[{
		"uri":"data:application/octet-stream;base64,",
		"byteLength":2504
	},
	{
		"uri":"data:application/octet-stream;base64,",
		"byteLength":2504
	},
	{
		"uri":"data:application/octet-stream;base64,",
		"byteLength":2504
	},
	{
		"uri":"data:application/octet-stream;base64,",
		"byteLength":2504
	},
	{
		"uri":"data:application/octet-stream;base64,",
		"byteLength":1952
	},
	{
		"uri":"data:application/octet-stream;base64,",
		"byteLength":1952
	},
	{
		"uri":"data:application/octet-stream;base64,",
		"byteLength":1952
	},
	{
		"uri":"data:application/octet-stream;base64,",
		"byteLength":1952
	},
	{
		"uri":"data:application/octet-stream;base64,",
		"byteLength":8136
	}],
	"materials":[{
		"pbrMetallicRoughness":{
			"baseColorFactor":[0,
			0.72,
			0.8,
			1],
			"metallicFactor":0,
			"roughnessFactor":0.5
		},
		"emissiveFactor":[0,
		0,
		0],
		"alphaMode":"OPAQUE",
		"doubleSided":false,
		"name":"Mat.2"
	},
	{
		"pbrMetallicRoughness":{
			"baseColorFactor":[0.97,
			0.97,
			0.97,
			1],
			"metallicFactor":0,
			"roughnessFactor":0.5
		},
		"emissiveFactor":[0,
		0,
		0],
		"alphaMode":"OPAQUE",
		"doubleSided":false,
		"name":"Mat.3"
	},
	{
		"pbrMetallicRoughness":{
			"baseColorFactor":[0.787,
			0.8,
			0,
			1],
			"metallicFactor":0,
			"roughnessFactor":0.5
		},
		"emissiveFactor":[0,
		0,
		0],
		"alphaMode":"OPAQUE",
		"doubleSided":false,
		"name":"Mat.1"
	},
	{
		"pbrMetallicRoughness":{
			"baseColorFactor":[0.8,
			0,
			0,
			1],
			"metallicFactor":0,
			"roughnessFactor":0.5
		},
		"emissiveFactor":[0,
		0,
		0],
		"alphaMode":"OPAQUE",
		"doubleSided":false,
		"name":"Mat"
	},
	{
		"pbrMetallicRoughness":{
			"baseColorFactor":[0.81,
			0.526,
			0,
			1],
			"metallicFactor":0,
			"roughnessFactor":0.5
		},
		"emissiveFactor":[0,
		0,
		0],
		"alphaMode":"OPAQUE",
		"doubleSided":false,
		"name":"Mat.4"
	}]
}